<svg width="100" height="100" viewBox="0 0 100 100" fill="none" xmlns="http://www.w3.org/2000/svg">
<path fill-rule="evenodd" clip-rule="evenodd" d="M50 100C77.6142 100 100 77.6142 100 50C100 22.3858 77.6142 0 50 0C22.3858 0 0 22.3858 0 50C0 77.6142 22.3858 100 50 100ZM53.5 27C53.5 23.9624 51.0376 21.5 48 21.5C44.9624 21.5 42.5 23.9624 42.5 27V56V59.3041L45.4171 60.8558L68.9171 73.3558C71.5989 74.7823 74.9293 73.7647 76.3558 71.0829C77.7823 68.4011 76.7647 65.0707 74.0829 63.6442L53.5 52.6959V27Z" fill="white"/>
</svg>
