<svg width="61" height="61" viewBox="0 0 61 61" fill="none" xmlns="http://www.w3.org/2000/svg">
<circle cx="30.5" cy="30.5" r="30.5" fill="#002B20"/>
<path d="M21.9639 22.5826C23.6102 21.8501 25.3756 21.3104 27.2215 21.0013C27.2551 20.9953 27.2887 21.0102 27.306 21.0401C27.5331 21.4317 27.7845 21.9425 27.9607 22.3441C29.946 22.0558 31.9212 22.0558 33.8658 22.3441C34.042 21.9336 34.3026 21.4317 34.5307 21.0401C34.548 21.0112 34.5816 20.9963 34.6152 21.0013C36.46 21.3094 38.2254 21.8491 39.8728 22.5826C39.887 22.5886 39.8992 22.5985 39.9074 22.6114C43.256 27.4627 44.1733 32.1947 43.7233 36.868C43.7213 36.8909 43.7081 36.9127 43.6897 36.9267C41.4804 38.5 39.3403 39.4551 37.2399 40.0883C37.2063 40.0982 37.1707 40.0863 37.1493 40.0594C36.6524 39.4015 36.2096 38.7077 35.8298 37.9782C35.8074 37.9355 35.8288 37.8848 35.8746 37.8679C36.5771 37.6095 37.246 37.2944 37.8895 36.9366C37.9404 36.9078 37.9444 36.8372 37.8976 36.8034C37.7622 36.705 37.6268 36.6026 37.4975 36.4993C37.4741 36.4804 37.4415 36.4764 37.414 36.4883C33.1867 38.3599 28.6102 38.3599 24.4329 36.4883C24.4054 36.4754 24.3728 36.4794 24.3484 36.4983C24.2191 36.6016 24.0836 36.705 23.9472 36.8034C23.9004 36.8372 23.9034 36.9078 23.9543 36.9366C24.5978 37.3014 25.2667 37.6095 25.9702 37.8669C26.016 37.8838 26.0364 37.9355 26.014 37.9782C25.6261 38.7067 25.1832 39.4005 24.6955 40.0584C24.6752 40.0863 24.6385 40.0982 24.6049 40.0883C22.4943 39.4551 20.3542 38.5 18.1449 36.9267C18.1256 36.9127 18.1133 36.8919 18.1113 36.869C17.5727 31.4661 19.0134 26.7729 21.9303 22.6124C21.9374 22.5985 21.9496 22.5886 21.9639 22.5826ZM35.1985 34.0225C36.4712 34.0225 37.5199 32.8894 37.5199 31.4979C37.5199 30.1065 36.4916 28.9734 35.1985 28.9734C33.8953 28.9734 32.8569 30.1164 32.8772 31.4979C32.8772 32.8894 33.9055 34.0225 35.1985 34.0225ZM26.6157 34.0225C27.8884 34.0225 28.9371 32.8894 28.9371 31.4979C28.9371 30.1065 27.9087 28.9734 26.6157 28.9734C25.3125 28.9734 24.274 30.1164 24.2944 31.4979C24.2944 32.8894 25.3125 34.0225 26.6157 34.0225Z" fill="#8C9C67"/>
</svg>
