<svg width="61" height="61" viewBox="0 0 61 61" fill="none" xmlns="http://www.w3.org/2000/svg">
<circle cx="30.5" cy="30.5" r="30.5" fill="#002B20"/>
<path d="M30.9151 18C33.9818 18.0001 36.9484 19.1191 39.284 21.1566C41.6197 23.1941 43.172 26.0173 43.6633 29.121C44.1545 32.2246 43.5526 35.4062 41.9653 38.0965C40.3779 40.7868 37.9087 42.8102 34.9995 43.8047C34.3537 43.9205 34.1115 43.5233 34.1115 43.1757C34.1115 42.8612 34.1277 41.8184 34.1277 40.7094C37.3726 41.3218 38.2121 39.8984 38.4704 39.1536C38.757 38.4292 39.2113 37.7872 39.7941 37.2832C40.2462 37.0349 40.8919 36.4224 39.8103 36.4059C39.3973 36.4519 39.0012 36.5992 38.6555 36.8355C38.3099 37.0717 38.0248 37.39 37.8246 37.7631C37.648 38.0885 37.4105 38.3749 37.1257 38.606C36.8409 38.837 36.5144 39.0082 36.165 39.1097C35.8156 39.2112 35.4501 39.241 35.0894 39.1974C34.7287 39.1538 34.38 39.0376 34.0632 38.8556C34.0073 38.1824 33.7146 37.553 33.2398 37.0846C36.1134 36.7535 39.1161 35.6114 39.1161 30.5465C39.1343 29.2305 38.6606 27.9572 37.7923 26.9878C38.1872 25.844 38.141 24.5888 37.6632 23.4788C37.6632 23.4788 36.5816 23.1312 34.1116 24.836C31.9983 24.2401 29.7674 24.2401 27.6541 24.836C25.1842 23.1146 24.1025 23.4788 24.1025 23.4788C23.6247 24.5888 23.5785 25.844 23.9734 26.9878C23.1025 27.9555 22.6284 29.2299 22.6496 30.5465C22.6496 35.6279 25.6685 36.7535 28.542 37.0846C28.2338 37.4049 27.9964 37.7894 27.846 38.2121C27.6956 38.6348 27.6357 39.0857 27.6703 39.5343C27.6703 41.3054 27.6864 42.7288 27.6864 43.1757C27.6864 43.5233 27.4443 43.9371 26.7985 43.8047C23.8944 42.8021 21.4323 40.774 19.8517 38.0824C18.2711 35.3907 17.6749 32.2107 18.1696 29.1101C18.6642 26.0094 20.2175 23.1899 22.5521 21.1548C24.8868 19.1198 27.8508 18.0016 30.9151 18Z" fill="#8C9C67"/>
</svg>
