<svg width="61" height="61" viewBox="0 0 61 61" fill="none" xmlns="http://www.w3.org/2000/svg">
<circle cx="30.5" cy="30.5" r="30.5" fill="#002B20"/>
<path d="M27.0417 43.8333H34.7917C41.25 43.8333 43.8333 41.25 43.8333 34.7917V27.0417C43.8333 20.5833 41.25 18 34.7917 18H27.0417C20.5833 18 18 20.5833 18 27.0417V34.7917C18 41.25 20.5833 43.8333 27.0417 43.8333Z" stroke="#8C9C67" stroke-width="1.9375" stroke-linecap="round" stroke-linejoin="round"/>
<path d="M30.9168 35.4374C31.5105 35.4374 32.0984 35.3205 32.6469 35.0933C33.1954 34.8661 33.6937 34.5331 34.1135 34.1133C34.5333 33.6935 34.8663 33.1951 35.0935 32.6466C35.3207 32.0981 35.4377 31.5103 35.4377 30.9166C35.4377 30.3229 35.3207 29.735 35.0935 29.1865C34.8663 28.638 34.5333 28.1397 34.1135 27.7199C33.6937 27.3001 33.1954 26.9671 32.6469 26.7399C32.0984 26.5127 31.5105 26.3958 30.9168 26.3958C29.7178 26.3958 28.5679 26.8721 27.7201 27.7199C26.8723 28.5677 26.396 29.7176 26.396 30.9166C26.396 32.1156 26.8723 33.2655 27.7201 34.1133C28.5679 34.9611 29.7178 35.4374 30.9168 35.4374Z" stroke="#8C9C67" stroke-width="1.9375" stroke-linecap="round" stroke-linejoin="round"/>
<path d="M38.1965 24.4583H38.212" stroke="#8C9C67" stroke-width="2.58333" stroke-linecap="round" stroke-linejoin="round"/>
</svg>
