<svg width="1200" height="1200" viewBox="0 0 1200 1200" fill="none" xmlns="http://www.w3.org/2000/svg">
<rect width="1200" height="1200" rx="600" fill="#16171A"/>
<path fill-rule="evenodd" clip-rule="evenodd" d="M600 917C775.074 917 917 775.074 917 600C917 424.926 775.074 283 600 283C424.926 283 283 424.926 283 600C283 775.074 424.926 917 600 917ZM491.5 600.5C491.5 540.301 540.301 491.5 600.5 491.5C660.699 491.5 709.5 540.301 709.5 600.5C709.5 660.699 660.699 709.5 600.5 709.5C540.301 709.5 491.5 660.699 491.5 600.5ZM600.5 416.5C498.88 416.5 416.5 498.88 416.5 600.5C416.5 702.12 498.88 784.5 600.5 784.5C702.12 784.5 784.5 702.12 784.5 600.5C784.5 498.88 702.12 416.5 600.5 416.5Z" fill="#47A54B"/>
</svg>
