<svg width="512" height="512" viewBox="0 0 512 512" fill="none" xmlns="http://www.w3.org/2000/svg">
<g clip-path="url(#clip0_607_60)">
<rect width="512" height="512" rx="256" fill="black"/>
<g filter="url(#filter0_f_607_60)">
<path fill-rule="evenodd" clip-rule="evenodd" d="M465.17 371.223C489.887 366.007 516.263 377.987 533.578 397.473C550.523 416.543 551.725 444.083 553.195 470.284C554.803 498.952 562.594 533.457 542.265 552.342C522.138 571.039 491.829 553.912 465.17 552.057C441.569 550.415 416.776 556.915 397.537 542.271C375.417 525.435 352.586 498.705 357.735 470.284C362.772 442.472 399.287 440.114 419.401 421.569C436.64 405.673 442.798 375.944 465.17 371.223Z" fill="#634BC5"/>
</g>
<g filter="url(#filter1_f_607_60)">
<path fill-rule="evenodd" clip-rule="evenodd" d="M277.452 -94.8092C301.548 -99.8889 327.262 -88.2217 344.141 -69.2462C360.661 -50.6758 361.832 -23.8561 363.265 1.65887C364.833 29.5764 372.428 63.178 352.61 81.5683C332.989 99.7767 303.441 83.0976 277.452 81.2912C254.444 79.6919 230.274 86.0215 211.518 71.7614C189.954 55.3659 167.697 29.3356 172.716 1.65887C177.627 -25.4252 213.225 -27.721 232.833 -45.7814C249.639 -61.2604 255.642 -90.2114 277.452 -94.8092Z" fill="#7775CB"/>
</g>
<g filter="url(#filter2_f_607_60)">
<path fill-rule="evenodd" clip-rule="evenodd" d="M-7.67622 370.312C18.904 364.714 47.268 377.573 65.8879 398.487C84.1101 418.954 85.4028 448.513 86.9833 476.635C88.7126 507.404 97.0906 544.438 75.23 564.707C53.5856 584.775 20.9916 566.392 -7.67622 564.402C-33.0569 562.639 -59.7185 569.615 -80.4077 553.898C-104.195 535.828 -128.746 507.139 -123.21 476.635C-117.792 446.784 -78.5253 444.254 -56.8955 424.349C-38.3572 407.288 -31.735 375.38 -7.67622 370.312Z" fill="#7775CB"/>
</g>
<path fill-rule="evenodd" clip-rule="evenodd" d="M223.517 107.976C155.743 122.773 105 183.134 105 255.345C105 338.652 172.534 406.186 255.841 406.186C266.615 406.186 277.125 405.056 287.259 402.909L253.232 350.742C201.735 349.359 160.413 307.179 160.413 255.348C160.413 213.99 186.722 178.778 223.517 165.532V107.976ZM406.681 255.345C406.681 311.697 375.78 360.832 329.998 386.729L299.625 340.164C330.304 324.295 351.273 292.27 351.273 255.348C351.273 248.027 350.448 240.899 348.888 234.051L397.699 203.95C403.512 219.991 406.681 237.298 406.681 255.345ZM376.383 164.653C351.171 131.196 312.353 108.571 268.153 105V160.705C292.446 163.833 313.878 176.097 328.893 193.94L376.383 164.653Z" fill="#F4F4F4"/>
</g>
<defs>
<filter id="filter0_f_607_60" x="5" y="18" width="903" height="895" filterUnits="userSpaceOnUse" color-interpolation-filters="sRGB">
<feFlood flood-opacity="0" result="BackgroundImageFix"/>
<feBlend mode="normal" in="SourceGraphic" in2="BackgroundImageFix" result="shape"/>
<feGaussianBlur stdDeviation="176" result="effect1_foregroundBlur_607_60"/>
</filter>
<filter id="filter1_f_607_60" x="-180" y="-448" width="898" height="890" filterUnits="userSpaceOnUse" color-interpolation-filters="sRGB">
<feFlood flood-opacity="0" result="BackgroundImageFix"/>
<feBlend mode="normal" in="SourceGraphic" in2="BackgroundImageFix" result="shape"/>
<feGaussianBlur stdDeviation="176" result="effect1_foregroundBlur_607_60"/>
</filter>
<filter id="filter2_f_607_60" x="-476" y="17" width="918" height="909" filterUnits="userSpaceOnUse" color-interpolation-filters="sRGB">
<feFlood flood-opacity="0" result="BackgroundImageFix"/>
<feBlend mode="normal" in="SourceGraphic" in2="BackgroundImageFix" result="shape"/>
<feGaussianBlur stdDeviation="176" result="effect1_foregroundBlur_607_60"/>
</filter>
<clipPath id="clip0_607_60">
<rect width="512" height="512" rx="256" fill="white"/>
</clipPath>
</defs>
</svg>
