<svg width="64" height="64" viewBox="0 0 64 64" fill="none" xmlns="http://www.w3.org/2000/svg">
<circle cx="32" cy="32" r="31.0725" stroke="white" stroke-width="1.85507"/>
<path d="M33.8552 15.7681C33.8552 14.9997 33.2323 14.3768 32.4639 14.3768C31.6955 14.3768 31.0726 14.9997 31.0726 15.7681H33.8552ZM31.4801 50.1432C32.0234 50.6866 32.9043 50.6866 33.4477 50.1432L42.3019 41.289C42.8452 40.7457 42.8452 39.8648 42.3019 39.3214C41.7585 38.7781 40.8776 38.7781 40.3343 39.3214L32.4639 47.1918L24.5935 39.3214C24.0501 38.7781 23.1692 38.7781 22.6259 39.3214C22.0825 39.8648 22.0825 40.7457 22.6259 41.289L31.4801 50.1432ZM31.0726 15.7681L31.0726 49.1594H33.8552V15.7681H31.0726Z" fill="white"/>
</svg>
