<svg width="30" height="22" viewBox="0 0 30 22" fill="none" xmlns="http://www.w3.org/2000/svg">
<path d="M1.98204 9.79047C1.21372 9.8012 0.599568 10.4327 0.610296 11.2011C0.621025 11.9694 1.25257 12.5835 2.02089 12.5728L1.98204 9.79047ZM28.9963 11.7886C29.532 11.2377 29.5197 10.3569 28.9688 9.82118L19.9919 1.09146C19.441 0.555765 18.5602 0.568065 18.0245 1.11894C17.4888 1.66981 17.5011 2.55065 18.0519 3.08635L26.0315 10.8461L18.2717 18.8256C17.736 19.3765 17.7483 20.2573 18.2992 20.793C18.8501 21.3287 19.7309 21.3164 20.2666 20.7656L28.9963 11.7886ZM2.02089 12.5728L28.0183 12.2098L27.9795 9.42746L1.98204 9.79047L2.02089 12.5728Z" fill="white"/>
</svg>
