<svg width="61" height="61" viewBox="0 0 61 61" fill="none" xmlns="http://www.w3.org/2000/svg">
<circle cx="30.5" cy="30.5" r="30.5" fill="#002B20"/>
<path d="M43.83 22.5192C42.8592 22.9404 41.8326 23.2188 40.7821 23.3458C41.8904 22.6836 42.721 21.642 43.1197 20.4141C42.0781 21.0341 40.938 21.4709 39.7489 21.7056C38.954 20.8436 37.8955 20.2698 36.7394 20.0742C35.5833 19.8786 34.395 20.0723 33.3608 20.6248C32.3267 21.1774 31.5051 22.0575 31.0251 23.1273C30.545 24.197 30.4336 25.3959 30.7084 26.5358C28.6025 26.4293 26.5425 25.8809 24.6624 24.9264C22.7823 23.9718 21.1239 22.6325 19.7952 20.9952C19.3291 21.8091 19.0842 22.7308 19.0849 23.6686C19.0832 24.5396 19.2969 25.3975 19.707 26.1658C20.1171 26.9342 20.7109 27.5893 21.4354 28.0727C20.5933 28.0497 19.7692 27.8238 19.0332 27.414L19.0332 27.4786C19.0395 28.6989 19.4671 29.8796 20.2437 30.8209C21.0203 31.7623 22.0983 32.4065 23.2951 32.6446C22.8344 32.7848 22.3561 32.8587 21.8745 32.8641C21.5411 32.8602 21.2086 32.83 20.88 32.7737C21.2209 33.8235 21.8805 34.7409 22.767 35.3982C23.6536 36.0556 24.723 36.4203 25.8265 36.4416C23.9631 37.9078 21.6625 38.708 19.2915 38.7146C18.8598 38.716 18.4284 38.6901 18 38.6371C20.4208 40.2002 23.242 41.0299 26.1235 41.0264C28.112 41.047 30.0847 40.6713 31.9264 39.921C33.768 39.1707 35.4417 38.061 36.8497 36.6566C38.2577 35.2522 39.3717 33.5814 40.1267 31.7417C40.8817 29.902 41.2625 27.9302 41.247 25.9417C41.247 25.7221 41.247 25.4897 41.247 25.2572C42.2604 24.5014 43.1345 23.5749 43.83 22.5192Z" fill="#8C9C67"/>
</svg>
