<svg width="61" height="61" viewBox="0 0 61 61" fill="none" xmlns="http://www.w3.org/2000/svg">
<circle cx="30.5" cy="30.5" r="30.5" fill="#002B20"/>
<path d="M37.375 41.6667H24.4583C20.5833 41.6667 18 39.0833 18 35.2083V27.4583C18 23.5833 20.5833 21 24.4583 21H37.375C41.25 21 43.8333 23.5833 43.8333 27.4583V35.2083C43.8333 39.0833 41.25 41.6667 37.375 41.6667Z" stroke="#8C9C67" stroke-width="1.9375" stroke-miterlimit="10" stroke-linecap="round" stroke-linejoin="round"/>
<path d="M30.1419 28.1043L33.3711 30.0418C34.5336 30.8168 34.5336 31.9793 33.3711 32.7543L30.1419 34.6918C28.8502 35.4668 27.8169 34.8209 27.8169 33.4001V29.5251C27.8169 27.8459 28.8502 27.3293 30.1419 28.1043Z" stroke="#8C9C67" stroke-width="1.9375" stroke-miterlimit="10" stroke-linecap="round" stroke-linejoin="round"/>
</svg>
